# xmcd
#
# Track frame offsets:
#	150
#	25906
#	45930
#	63971
#	84495
#	104171
#	125894
#	143296
#	167309
#
# Disc length: 2644 seconds
#
# Revision: 1
# Processed by: cddbd v1.5.2PL0 Copyright (c) Steve Scherf et al.
# Submitted via: EasyCDDAExtractor 16.0.9.1
#
DISCID=6c0a5209
DTITLE=Đàm Vĩnh Hưng - THVCD: Dạ Khúc Cho Tình Nhân 2 - Qua Cơn Mê
DYEAR=2008
DGENRE=Country
TTITLE0=Thành Phố Buồn (Lam Phương)
TTITLE1=Đà Lạt Hoàng Hôn (Minh Kỳ - Dạ Cầm)
TTITLE2=Chuyện Hẹn Hò (Trần Thiện Thanh)
TTITLE3=Sao Em Nở Đành Quên (Tô Thanh Tùng)
TTITLE4=Định Mệnh (Song Ngọc)
TTITLE5=Phút Cuối (Lam Phương)
TTITLE6=Nỗi Buồn Gác Trọ (Hoài Linh - Mạnh Phát)
TTITLE7=Mưa Chiều Kỷ Niệm (Duy Yên - Quốc Kỳ)
TTITLE8=Hàn Mặc Tử (Trần Thiện Thanh)
EXTD=
EXTT0=
EXTT1=
EXTT2=
EXTT3=
EXTT4=
EXTT5=
EXTT6=
EXTT7=
EXTT8=
PLAYORDER=
